<?xml version="1.0" encoding="UTF-8"?>
<svg id="Layer_1" data-name="Layer 1" xmlns="http://www.w3.org/2000/svg" version="1.1" viewBox="0 0 209 64">
  <defs>
    <style>
      .cls-1 {
        fill-rule: evenodd;
      }

      .cls-1, .cls-2 {
        fill: #f48120;
        stroke-width: 0px;
      }
    </style>
  </defs>
  <path class="cls-1" d="M23.73,42.14h29.3c-3.85,7.4-11.69,12.18-20.38,12.18-12.61,0-22.83-9.94-22.83-22.19,0-11.3,8.76-20.83,20.31-22.06l1.45-.15V.9l-1.77.15C13.28,2.47.57,15.97.57,32.12c0,17.23,14.36,31.19,32.08,31.19,16.42,0,32.01-13.38,32.01-29.75v-1.58H23.73v10.15Z"/>
  <polygon class="cls-1" points="59.78 8.83 54.77 8.83 54.77 10.23 34.05 .82 34.05 27.23 59.78 27.23 59.78 16.79 64.67 19.11 64.67 19.14 64.79 19.14 64.79 14.78 59.78 12.51 59.78 8.83"/>
  <path class="cls-1" d="M206.78,33.98c-.68-1.07-1.61-1.88-2.75-2.47-1.48-.76-3.42-1.26-5.05-1.63-.9-.21-3.17-.75-3.88-1.33-.27-.22-.43-.48-.43-.82,0-.37.14-.62.44-.84.74-.53,1.77-.66,2.67-.66.79,0,1.79.1,2.43.6.61.48.87,1.31.99,2.03l.1.57,5.84-.19-.03-.66c-.08-2.11-.83-3.94-2.47-5.34-1.84-1.57-4.43-1.99-6.8-1.99-1.59,0-3.22.21-4.69.82-1.28.53-2.35,1.33-3.11,2.47-.71,1.06-1.08,2.24-1.08,3.5,0,1.96.79,3.6,2.29,4.91,1.37,1.2,3.64,1.9,5.4,2.33,1.14.28,2.45.56,3.56.94.42.14,1.04.4,1.33.74.22.27.31.57.31.9,0,.67-.35,1.18-.87,1.6-.75.61-1.91.75-2.86.75-1.01,0-2.06-.19-2.84-.85-.82-.69-1.2-1.79-1.39-2.79l-.11-.6-5.75.56.08.67c.28,2.3,1.12,4.46,2.96,6,.73.62,1.57,1.06,2.46,1.38h1.61l-.42,1.54,1-.29c.51-.15,1.04-.24,1.58-.24.26,0,.69.03.91.2.11.08.19.18.19.32,0,.16-.07.24-.19.34-.36.26-.99.31-1.41.31-.82,0-1.64-.05-2.45-.14l-.65-.07v2.59l.44.11c.85.2,1.86.23,2.73.23,1.4,0,2.91-.23,4.05-1.09.77-.58,1.18-1.35,1.18-2.3,0-.56-.17-1.07-.48-1.51h1.18c.14-.05.28-.1.42-.16,1.4-.57,2.54-1.45,3.35-2.7.77-1.18,1.18-2.48,1.18-3.88s-.27-2.68-1-3.83Z"/>
  <path class="cls-1" d="M172.64,21.71l-9.27,23.21h6.29l1.87-4.98h8.09l1.95,4.98h6.38l-9.56-23.21h-5.74ZM173.41,34.91l2.08-5.54,2.14,5.54h-4.22Z"/>
  <polygon class="cls-1" points="166.33 21.7 147.12 21.7 147.12 26.72 153.77 26.72 153.77 44.92 159.69 44.92 159.69 26.72 166.33 26.72 166.33 21.7"/>
  <polygon class="cls-1" points="145.67 21.71 144.46 21.7 137.66 21.7 129.44 30.37 129.44 21.7 123.52 21.7 123.52 44.92 129.44 44.92 129.44 37.91 132.29 35.06 138.23 44.92 145.76 44.92 136.43 30.97 145.67 21.71"/>
  <path class="cls-1" d="M85.09,36.88h5.19v1.79c-.62.43-1.32.77-2.03,1.04-.84.32-1.71.5-2.61.5-1.66,0-3.05-.52-4.15-1.73-1.3-1.43-1.6-3.58-1.6-5.42,0-1.74.31-3.68,1.58-5.01,1.12-1.18,2.59-1.63,4.23-1.63,1.02,0,2.03.2,2.87.8.78.55,1.27,1.3,1.54,2.2l.17.58,5.83-1.06-.15-.66c-.47-2.09-1.52-3.84-3.29-5.13-1.98-1.44-4.55-1.85-6.96-1.85-1.95,0-3.95.29-5.7,1.17-1.98,1-3.54,2.44-4.6,4.36-1.1,1.98-1.55,4.16-1.55,6.41s.44,4.2,1.39,6.13c.93,1.9,2.34,3.39,4.22,4.43,1.99,1.1,4.21,1.53,6.49,1.53,1.98,0,3.9-.37,5.73-1.07,1.55-.59,3.17-1.39,4.37-2.53l.2-.19v-9.67h-11.14v5.02Z"/>
  <path class="cls-1" d="M109.78,21.3c-1.75,0-3.5.26-5.13.92-1.19.49-2.23,1.22-3.13,2.12-.93.94-1.69,2.01-2.23,3.2-.83,1.83-1.09,3.91-1.09,5.89,0,3.21.81,6.32,3.16,8.69,2.28,2.29,5.25,3.19,8.48,3.19s6.16-.92,8.42-3.21c2.36-2.38,3.15-5.54,3.15-8.77s-.8-6.43-3.18-8.83c-2.28-2.29-5.22-3.21-8.46-3.21ZM113.8,38.52c-1.06,1.15-2.38,1.68-3.97,1.68s-2.92-.54-3.99-1.7c-1.28-1.39-1.6-3.41-1.6-5.21s.29-3.85,1.55-5.22c1.07-1.17,2.44-1.65,4.03-1.65s2.95.47,4.01,1.63c1.25,1.36,1.53,3.43,1.53,5.19s-.3,3.89-1.57,5.28Z"/>
  <rect class="cls-2" x="103.57" y="14.74" width="4.78" height="4.78"/>
  <rect class="cls-2" x="111.27" y="14.69" width="4.78" height="4.78"/>
</svg>